<svg xmlns="http://www.w3.org/2000/svg" viewBox="0 0 512 512" width="512" height="512">
<defs>
<linearGradient id="red" x1="0" y1="0" x2="0" y2="1">
  <stop offset="0" stop-color="#ff6a5f"/><stop offset="0.45" stop-color="#e2363c"/><stop offset="1" stop-color="#a51d2a"/>
</linearGradient>
<linearGradient id="gold" x1="0" y1="0" x2="0" y2="1">
  <stop offset="0" stop-color="#fff4a8"/><stop offset="0.42" stop-color="#f8c233"/><stop offset="1" stop-color="#c47c0e"/>
</linearGradient>
<linearGradient id="goldSide" x1="0" y1="0" x2="1" y2="0">
  <stop offset="0" stop-color="#c47c0e"/><stop offset="0.3" stop-color="#ffe98a"/><stop offset="0.55" stop-color="#f6b92f"/><stop offset="1" stop-color="#b56f0b"/>
</linearGradient>
<radialGradient id="cream" cx="0.34" cy="0.28" r="0.85">
  <stop offset="0" stop-color="#ffffff"/><stop offset="0.45" stop-color="#f6eedc"/><stop offset="1" stop-color="#c8b48f"/>
</radialGradient>
<radialGradient id="skin" cx="0.4" cy="0.36" r="0.78">
  <stop offset="0" stop-color="#ffece0"/><stop offset="0.55" stop-color="#ffd6b3"/><stop offset="1" stop-color="#eeaa82"/>
</radialGradient>
<linearGradient id="steel" x1="0" y1="0" x2="1" y2="0">
  <stop offset="0" stop-color="#8391a6"/><stop offset="0.35" stop-color="#f6f9fd"/><stop offset="0.6" stop-color="#d7e1ec"/><stop offset="1" stop-color="#9aa9bc"/>
</linearGradient>
<linearGradient id="tear" x1="0" y1="0" x2="0" y2="1">
  <stop offset="0" stop-color="#d4f3ff"/><stop offset="1" stop-color="#3f9fe8"/>
</linearGradient>
<linearGradient id="mouth" x1="0" y1="0" x2="0" y2="1">
  <stop offset="0" stop-color="#4f1116"/><stop offset="1" stop-color="#8e2228"/>
</linearGradient>
<radialGradient id="rage" cx="0.5" cy="0.3" r="0.75">
  <stop offset="0" stop-color="#ff3b2e" stop-opacity="0.92"/><stop offset="0.7" stop-color="#ff5a45" stop-opacity="0.7"/><stop offset="1" stop-color="#d7261c" stop-opacity="0.8"/>
</radialGradient>
<linearGradient id="pale" x1="0" y1="0" x2="0" y2="1">
  <stop offset="0" stop-color="#5f7de0" stop-opacity="0.8"/><stop offset="0.5" stop-color="#8aa2f0" stop-opacity="0.18"/><stop offset="0.62" stop-color="#8aa2f0" stop-opacity="0"/>
</linearGradient>
<linearGradient id="gloom" x1="0" y1="0" x2="0" y2="1">
  <stop offset="0" stop-color="#7a86d8" stop-opacity="0.55"/><stop offset="0.45" stop-color="#7a86d8" stop-opacity="0"/>
</linearGradient>
<filter id="sticker" x="-12%" y="-12%" width="124%" height="124%" color-interpolation-filters="sRGB">
  <feGaussianBlur in="SourceAlpha" stdDeviation="8" result="blur"/>
  <feComponentTransfer in="blur" result="whiteA"><feFuncA type="linear" slope="24" intercept="-1.3"/></feComponentTransfer>
  <feComponentTransfer in="blur" result="rimA"><feFuncA type="linear" slope="24" intercept="-0.45"/></feComponentTransfer>
  <feGaussianBlur in="rimA" stdDeviation="5" result="soft"/>
  <feOffset in="soft" dy="6" result="drop"/>
  <feFlood flood-color="#000" flood-opacity="0.35"/><feComposite in2="drop" operator="in" result="shadow"/>
  <feFlood flood-color="#2a1810"/><feComposite in2="rimA" operator="in" result="rim"/>
  <feFlood flood-color="#ffffff"/><feComposite in2="whiteA" operator="in" result="white"/>
  <feMerge><feMergeNode in="shadow"/><feMergeNode in="rim"/><feMergeNode in="white"/></feMerge>
</filter><g id="art">
    <g transform="rotate(0 256 476)">
      
      <path d="M 231 430 L 230 462" fill="none" stroke="#2a1810" stroke-width="42" stroke-linecap="round" stroke-linejoin="round"/><path d="M 231 430 L 230 462" fill="none" stroke="#343c60" stroke-width="28" stroke-linecap="round" stroke-linejoin="round"/><path d="M 215 438 Q 231 432 247 438 L 245 462 Q 231 467 217 462 Z" fill="url(#red)" stroke="#2a1810" stroke-width="7" stroke-linejoin="round" stroke-linecap="round"/><path d="M 219 443 Q 231 439 243 443" fill="none" stroke="rgba(255,255,255,0.55)" stroke-width="3" stroke-linecap="round" stroke-linejoin="round"/><path d="M 281 430 L 280 462" fill="none" stroke="#2a1810" stroke-width="42" stroke-linecap="round" stroke-linejoin="round"/><path d="M 281 430 L 280 462" fill="none" stroke="#343c60" stroke-width="28" stroke-linecap="round" stroke-linejoin="round"/><path d="M 265 438 Q 281 432 297 438 L 295 462 Q 281 467 267 462 Z" fill="url(#red)" stroke="#2a1810" stroke-width="7" stroke-linejoin="round" stroke-linecap="round"/><path d="M 269 443 Q 281 439 293 443" fill="none" stroke="rgba(255,255,255,0.55)" stroke-width="3" stroke-linecap="round" stroke-linejoin="round"/><ellipse cx="227" cy="476" rx="26" ry="12" fill="#2b2530" stroke="#2a1810" stroke-width="7"/><path d="M 213 470 Q 227 466 239 470" fill="none" stroke="rgba(255,255,255,0.3)" stroke-width="3" stroke-linecap="round" stroke-linejoin="round"/><ellipse cx="285" cy="476" rx="26" ry="12" fill="#2b2530" stroke="#2a1810" stroke-width="7"/><path d="M 271 470 Q 285 466 297 470" fill="none" stroke="rgba(255,255,255,0.3)" stroke-width="3" stroke-linecap="round" stroke-linejoin="round"/>
      <path d="M 192 394 L 320 394 L 342 446 Q 256 460 170 446 Z" fill="url(#red)" stroke="#2a1810" stroke-width="7" stroke-linejoin="round" stroke-linecap="round"/><path d="M 236 398 L 230 454" fill="none" stroke="#2a1810" stroke-width="5" stroke-linecap="round" stroke-linejoin="round"/><path d="M 276 398 L 282 454" fill="none" stroke="#2a1810" stroke-width="5" stroke-linecap="round" stroke-linejoin="round"/><path d="M 182 420 Q 256 430 330 420" fill="none" stroke="#2a1810" stroke-width="4" stroke-linecap="round" stroke-linejoin="round"/><path d="M 176 441 Q 256 454 336 441" fill="none" stroke="#f6b92f" stroke-width="6" stroke-linecap="round" stroke-linejoin="round"/><path d="M 209 403 L 209 415" fill="none" stroke="#ffd65a" stroke-width="4" stroke-linecap="round" stroke-linejoin="round"/><path d="M 217 403 L 217 415" fill="none" stroke="#ffd65a" stroke-width="4" stroke-linecap="round" stroke-linejoin="round"/><path d="M 252 403 L 252 415" fill="none" stroke="#ffd65a" stroke-width="4" stroke-linecap="round" stroke-linejoin="round"/><path d="M 260 403 L 260 415" fill="none" stroke="#ffd65a" stroke-width="4" stroke-linecap="round" stroke-linejoin="round"/><path d="M 295 403 L 295 415" fill="none" stroke="#ffd65a" stroke-width="4" stroke-linecap="round" stroke-linejoin="round"/><path d="M 303 403 L 303 415" fill="none" stroke="#ffd65a" stroke-width="4" stroke-linecap="round" stroke-linejoin="round"/>
      <path d="M 198 318 Q 256 304 314 318 L 324 400 Q 256 411 188 400 Z" fill="url(#red)" stroke="#2a1810" stroke-width="7" stroke-linejoin="round" stroke-linecap="round"/><path d="M 194 348 Q 256 358 318 348" fill="none" stroke="#2a1810" stroke-width="4" stroke-linecap="round" stroke-linejoin="round"/><path d="M 192 374 Q 256 384 320 374" fill="none" stroke="#2a1810" stroke-width="4" stroke-linecap="round" stroke-linejoin="round"/><path d="M 218 354 L 218 368" fill="none" stroke="#ffd65a" stroke-width="4" stroke-linecap="round" stroke-linejoin="round"/><path d="M 226 354 L 226 368" fill="none" stroke="#ffd65a" stroke-width="4" stroke-linecap="round" stroke-linejoin="round"/><path d="M 218 380 L 218 394" fill="none" stroke="#ffd65a" stroke-width="4" stroke-linecap="round" stroke-linejoin="round"/><path d="M 226 380 L 226 394" fill="none" stroke="#ffd65a" stroke-width="4" stroke-linecap="round" stroke-linejoin="round"/><path d="M 286 354 L 286 368" fill="none" stroke="#ffd65a" stroke-width="4" stroke-linecap="round" stroke-linejoin="round"/><path d="M 294 354 L 294 368" fill="none" stroke="#ffd65a" stroke-width="4" stroke-linecap="round" stroke-linejoin="round"/><path d="M 286 380 L 286 394" fill="none" stroke="#ffd65a" stroke-width="4" stroke-linecap="round" stroke-linejoin="round"/><path d="M 294 380 L 294 394" fill="none" stroke="#ffd65a" stroke-width="4" stroke-linecap="round" stroke-linejoin="round"/><circle cx="256" cy="356" r="14" fill="url(#gold)" stroke="#2a1810" stroke-width="7"/><circle cx="256" cy="356" r="7" fill="none" stroke="#2a1810" stroke-width="4"/><path d="M 190 398 Q 256 410 322 398" fill="none" stroke="#2a1810" stroke-width="21" stroke-linecap="round" stroke-linejoin="round"/><path d="M 190 398 Q 256 410 322 398" fill="none" stroke="#f6b92f" stroke-width="7" stroke-linecap="round" stroke-linejoin="round"/><path d="M 208 330 Q 226 322 244 322" fill="none" stroke="rgba(255,255,255,0.6)" stroke-width="6" stroke-linecap="round" stroke-linejoin="round"/>
      <path d="M 302 334 Q 330 380 319.11 413.14" fill="none" stroke="#2a1810" stroke-width="44" stroke-linecap="round" stroke-linejoin="round"/><path d="M 302 334 Q 330 380 319.11 413.14" fill="none" stroke="#343c60" stroke-width="30" stroke-linecap="round" stroke-linejoin="round"/><path d="M 319.32 372.8 Q 325.1 394.91 319.11 413.14" fill="none" stroke="#2a1810" stroke-width="46" stroke-linecap="round" stroke-linejoin="round"/><path d="M 319.32 372.8 Q 325.1 394.91 319.11 413.14" fill="none" stroke="#d8323a" stroke-width="32" stroke-linecap="round" stroke-linejoin="round"/><path d="M 338.83 401.03 L 304.99 397.71" fill="none" stroke="#2a1810" stroke-width="14" stroke-linecap="butt" stroke-linejoin="round"/><path d="M 338.83 401.03 L 304.99 397.71" fill="none" stroke="#f6b92f" stroke-width="7" stroke-linecap="butt" stroke-linejoin="round"/><g transform="rotate(0 319.11 413.14)"><circle cx="319.11" cy="413.14" r="17" fill="url(#skin)" stroke="#2a1810" stroke-width="7"/><path d="M 310.11 408.14 Q 319.11 404.14 328.11 408.14" fill="none" stroke="#d98f6c" stroke-width="3" stroke-linecap="round" stroke-linejoin="round"/></g><path d="M 210 334 Q 166 366 184 318" fill="none" stroke="#2a1810" stroke-width="44" stroke-linecap="round" stroke-linejoin="round"/><path d="M 210 334 Q 166 366 184 318" fill="none" stroke="#343c60" stroke-width="30" stroke-linecap="round" stroke-linejoin="round"/><path d="M 182.96 346.6 Q 174.1 344.4 184 318" fill="none" stroke="#2a1810" stroke-width="46" stroke-linecap="round" stroke-linejoin="round"/><path d="M 182.96 346.6 Q 174.1 344.4 184 318" fill="none" stroke="#d8323a" stroke-width="32" stroke-linecap="round" stroke-linejoin="round"/><path d="M 162.58 330.83 L 195.98 337.17" fill="none" stroke="#2a1810" stroke-width="14" stroke-linecap="butt" stroke-linejoin="round"/><path d="M 162.58 330.83 L 195.98 337.17" fill="none" stroke="#f6b92f" stroke-width="7" stroke-linecap="butt" stroke-linejoin="round"/><g transform="rotate(0 184 318)"><circle cx="184" cy="318" r="17" fill="url(#skin)" stroke="#2a1810" stroke-width="7"/><path d="M 175 313 Q 184 309 193 313" fill="none" stroke="#d98f6c" stroke-width="3" stroke-linecap="round" stroke-linejoin="round"/></g>
      <path d="M 214 312 L 164 322 L 152 386 L 200 388 Z" fill="url(#red)" stroke="#2a1810" stroke-width="7" stroke-linejoin="round" stroke-linecap="round"/><path d="M 207 334 L 161 342" fill="none" stroke="#2a1810" stroke-width="4" stroke-linecap="round" stroke-linejoin="round"/><path d="M 203 358 L 157 364" fill="none" stroke="#2a1810" stroke-width="4" stroke-linecap="round" stroke-linejoin="round"/><path d="M 199 382 L 156 380" fill="none" stroke="#f6b92f" stroke-width="6" stroke-linecap="round" stroke-linejoin="round"/><path d="M 180 344 L 180 356" fill="none" stroke="#ffd65a" stroke-width="4" stroke-linecap="round" stroke-linejoin="round"/><path d="M 188 344 L 188 356" fill="none" stroke="#ffd65a" stroke-width="4" stroke-linecap="round" stroke-linejoin="round"/><path d="M 170 330 L 206 322" fill="none" stroke="rgba(255,255,255,0.55)" stroke-width="4" stroke-linecap="round" stroke-linejoin="round"/><g transform="matrix(-1 0 0 1 512 0)"><path d="M 214 312 L 164 322 L 152 386 L 200 388 Z" fill="url(#red)" stroke="#2a1810" stroke-width="7" stroke-linejoin="round" stroke-linecap="round"/><path d="M 207 334 L 161 342" fill="none" stroke="#2a1810" stroke-width="4" stroke-linecap="round" stroke-linejoin="round"/><path d="M 203 358 L 157 364" fill="none" stroke="#2a1810" stroke-width="4" stroke-linecap="round" stroke-linejoin="round"/><path d="M 199 382 L 156 380" fill="none" stroke="#f6b92f" stroke-width="6" stroke-linecap="round" stroke-linejoin="round"/><path d="M 180 344 L 180 356" fill="none" stroke="#ffd65a" stroke-width="4" stroke-linecap="round" stroke-linejoin="round"/><path d="M 188 344 L 188 356" fill="none" stroke="#ffd65a" stroke-width="4" stroke-linecap="round" stroke-linejoin="round"/><path d="M 170 330 L 206 322" fill="none" stroke="rgba(255,255,255,0.55)" stroke-width="4" stroke-linecap="round" stroke-linejoin="round"/></g>
      <g transform="translate(0 12) rotate(6 256 252)"><path d="M 136 196 Q 116 262 124 306 Q 190 324 256 324 Q 322 324 388 306 Q 396 262 376 196 Z" fill="url(#red)" stroke="#2a1810" stroke-width="7" stroke-linejoin="round" stroke-linecap="round"/><path d="M 124 238 Q 256 262 388 238" fill="none" stroke="#2a1810" stroke-width="4" stroke-linecap="round" stroke-linejoin="round"/><path d="M 122 272 Q 256 296 390 272" fill="none" stroke="#2a1810" stroke-width="4" stroke-linecap="round" stroke-linejoin="round"/><path d="M 128 302 Q 256 320 384 302" fill="none" stroke="#f6b92f" stroke-width="6" stroke-linecap="round" stroke-linejoin="round"/><path d="M 136 249 L 136 261" fill="none" stroke="#ffd65a" stroke-width="4" stroke-linecap="round" stroke-linejoin="round"/><path d="M 144 249 L 144 261" fill="none" stroke="#ffd65a" stroke-width="4" stroke-linecap="round" stroke-linejoin="round"/><path d="M 368 249 L 368 261" fill="none" stroke="#ffd65a" stroke-width="4" stroke-linecap="round" stroke-linejoin="round"/><path d="M 376 249 L 376 261" fill="none" stroke="#ffd65a" stroke-width="4" stroke-linecap="round" stroke-linejoin="round"/><path d="M 134 282 L 134 294" fill="none" stroke="#ffd65a" stroke-width="4" stroke-linecap="round" stroke-linejoin="round"/><path d="M 142 282 L 142 294" fill="none" stroke="#ffd65a" stroke-width="4" stroke-linecap="round" stroke-linejoin="round"/><path d="M 370 282 L 370 294" fill="none" stroke="#ffd65a" stroke-width="4" stroke-linecap="round" stroke-linejoin="round"/><path d="M 378 282 L 378 294" fill="none" stroke="#ffd65a" stroke-width="4" stroke-linecap="round" stroke-linejoin="round"/><ellipse cx="256" cy="252" rx="90" ry="78" fill="url(#skin)" stroke="#2a1810" stroke-width="7"/><ellipse cx="256" cy="252" rx="87" ry="75" fill="url(#gloom)"/><ellipse cx="200" cy="286" rx="17" ry="9" fill="#ff7f86" opacity="0.65"/><ellipse cx="312" cy="286" rx="17" ry="9" fill="#ff7f86" opacity="0.65"/><path d="M 196 234 Q 214 230 232 214" fill="none" stroke="#2a1810" stroke-width="9" stroke-linecap="round" stroke-linejoin="round"/><g transform="matrix(-1 0 0 1 512 0)"><path d="M 196 234 Q 214 230 232 214" fill="none" stroke="#2a1810" stroke-width="9" stroke-linecap="round" stroke-linejoin="round"/></g><clipPath id="eye1"><ellipse cx="214" cy="254" rx="18" ry="23"/></clipPath><ellipse cx="214" cy="254" rx="18" ry="23" fill="#2a1810" stroke="#2a1810" stroke-width="5"/><g clip-path="url(#eye1)">
    <ellipse cx="214" cy="268.5" rx="16.2" ry="16.56" fill="#8a4a22"/>
    <ellipse cx="214" cy="272.64" rx="11.16" ry="8.74" fill="#d07a34"/>
    <path d="M 196 259.75 Q 214 282.75 232 259.75 Q 214 272.4 196 259.75 Z" fill="#8fd6ff" opacity="0.9"/>
  </g><ellipse cx="208.6" cy="249.18" rx="7.2" ry="7.36" fill="#fff"/><circle cx="220.48" cy="265.28" r="3.06" fill="#fff"/><circle cx="214.9" cy="256.53999999999996" r="2.16" fill="#fff"/><clipPath id="eye2"><ellipse cx="298" cy="254" rx="18" ry="23"/></clipPath><ellipse cx="298" cy="254" rx="18" ry="23" fill="#2a1810" stroke="#2a1810" stroke-width="5"/><g clip-path="url(#eye2)">
    <ellipse cx="298" cy="268.5" rx="16.2" ry="16.56" fill="#8a4a22"/>
    <ellipse cx="298" cy="272.64" rx="11.16" ry="8.74" fill="#d07a34"/>
    <path d="M 280 259.75 Q 298 282.75 316 259.75 Q 298 272.4 280 259.75 Z" fill="#8fd6ff" opacity="0.9"/>
  </g><ellipse cx="292.6" cy="249.18" rx="7.2" ry="7.36" fill="#fff"/><circle cx="304.48" cy="265.28" r="3.06" fill="#fff"/><circle cx="298.9" cy="256.53999999999996" r="2.16" fill="#fff"/><path d="M 203 271 C 201 294 194 312 188 334 Q 204 342 218 334 C 219 312 219 294 225 271 Z" fill="url(#tear)" stroke="#2a1810" stroke-width="5" stroke-linejoin="round" stroke-linecap="round"/><path d="M 211 280 C 209 298 208 312 202 326" fill="none" stroke="rgba(255,255,255,0.85)" stroke-width="3" stroke-linecap="round" stroke-linejoin="round"/><path d="M 287 271 C 285 294 286 312 284 334 Q 300 342 314 334 C 303 312 303 294 309 271 Z" fill="url(#tear)" stroke="#2a1810" stroke-width="5" stroke-linejoin="round" stroke-linecap="round"/><path d="M 295 280 C 293 298 292 312 294 326" fill="none" stroke="rgba(255,255,255,0.85)" stroke-width="3" stroke-linecap="round" stroke-linejoin="round"/><clipPath id="mouth3"><path d="M 228 306 Q 242 296 256 304 Q 270 296 284 306 Q 282 332 256 334 Q 230 332 228 306 Z"/></clipPath><path d="M 228 306 Q 242 296 256 304 Q 270 296 284 306 Q 282 332 256 334 Q 230 332 228 306 Z" fill="url(#mouth)"/><g clip-path="url(#mouth3)"><ellipse cx="256" cy="334" rx="17" ry="10" fill="#ff7c86"/></g><path d="M 228 306 Q 242 296 256 304 Q 270 296 284 306 Q 282 332 256 334 Q 230 332 228 306 Z" fill="none" stroke="#2a1810" stroke-width="7" stroke-linejoin="round"/><g transform="rotate(-18 124 200)"><rect x="100" y="172" width="46" height="56" rx="11" fill="url(#red)" stroke="#2a1810" stroke-width="7"/><rect x="107" y="179" width="32" height="42" rx="7" fill="none" stroke="#f6b92f" stroke-width="4"/><circle cx="123" cy="200" r="8" fill="url(#gold)" stroke="#2a1810" stroke-width="4"/></g><g transform="matrix(-1 0 0 1 512 0)"><g transform="rotate(-18 124 200)"><rect x="100" y="172" width="46" height="56" rx="11" fill="url(#red)" stroke="#2a1810" stroke-width="7"/><rect x="107" y="179" width="32" height="42" rx="7" fill="none" stroke="#f6b92f" stroke-width="4"/><circle cx="123" cy="200" r="8" fill="url(#gold)" stroke="#2a1810" stroke-width="4"/></g></g><path d="M 150 198 C 146 118 196 84 256 84 C 316 84 366 118 362 198 Z" fill="url(#cream)" stroke="#2a1810" stroke-width="7" stroke-linejoin="round" stroke-linecap="round"/><path d="M 256 92 Q 155.2 128 172 192" fill="none" stroke="#c9b793" stroke-width="3" stroke-linecap="round" stroke-linejoin="round"/><path d="M 256 92 Q 188.8 128 200 192" fill="none" stroke="#c9b793" stroke-width="3" stroke-linecap="round" stroke-linejoin="round"/><path d="M 256 92 Q 222.4 128 228 192" fill="none" stroke="#c9b793" stroke-width="3" stroke-linecap="round" stroke-linejoin="round"/><path d="M 256 92 Q 256 128 256 192" fill="none" stroke="#c9b793" stroke-width="3" stroke-linecap="round" stroke-linejoin="round"/><path d="M 256 92 Q 289.6 128 284 192" fill="none" stroke="#c9b793" stroke-width="3" stroke-linecap="round" stroke-linejoin="round"/><path d="M 256 92 Q 323.2 128 312 192" fill="none" stroke="#c9b793" stroke-width="3" stroke-linecap="round" stroke-linejoin="round"/><path d="M 256 92 Q 356.8 128 340 192" fill="none" stroke="#c9b793" stroke-width="3" stroke-linecap="round" stroke-linejoin="round"/><ellipse cx="206" cy="122" rx="28" ry="12" fill="#fff" opacity="0.85" transform="rotate(-28 206 122)"/><circle cx="256" cy="88" r="9" fill="url(#gold)" stroke="#2a1810" stroke-width="5"/><path d="M 166 30 C 144 130 200 178 256 178 C 312 178 368 130 346 30 C 356 118 306 152 256 152 C 206 152 156 118 166 30 Z" fill="url(#goldSide)" stroke="#2a1810" stroke-width="7" stroke-linejoin="round" stroke-linecap="round"/><path d="M 170 50 C 162 118 206 160 244 166" fill="none" stroke="rgba(255,255,255,0.75)" stroke-width="4" stroke-linecap="round" stroke-linejoin="round"/><path d="M 140 188 Q 256 160 372 188 L 394 212 Q 256 190 118 212 Z" fill="url(#red)" stroke="#2a1810" stroke-width="7" stroke-linejoin="round" stroke-linecap="round"/><path d="M 126 207 Q 256 186 386 207" fill="none" stroke="#f6b92f" stroke-width="5" stroke-linecap="round" stroke-linejoin="round"/><path d="M 160 186 Q 220 172 260 171" fill="none" stroke="rgba(255,255,255,0.6)" stroke-width="4" stroke-linecap="round" stroke-linejoin="round"/><circle cx="256" cy="162" r="18" fill="url(#gold)" stroke="#2a1810" stroke-width="7"/><circle cx="256" cy="162" r="8" fill="#c0392b" stroke="#2a1810" stroke-width="4"/><circle cx="251" cy="156" r="4" fill="#fff" opacity="0.9"/></g>
      
      
      <g transform="translate(346 424) rotate(112)"><path d="M -9 -6 L -9 -98 Q -8 -122 3 -130 Q 12 -114 10 -94 L 10 -6 Z" fill="url(#steel)" stroke="#2a1810" stroke-width="7" stroke-linejoin="round" stroke-linecap="round"/><path d="M 6 -14 Q 3.5 -24 6 -34 Q 8.5 -44 6 -54 Q 3.5 -64 6 -74 Q 8.5 -84 6 -94" fill="none" stroke="#ffffff" stroke-width="3" opacity="0.75"/><path d="M -2 -12 L -2 -94" fill="none" stroke="rgba(255,255,255,0.9)" stroke-width="3.5" stroke-linecap="round" stroke-linejoin="round"/><path d="M -11 -15 L 12 -15 L 12 -4 L -11 -4 Z" fill="url(#gold)" stroke="#2a1810" stroke-width="5" stroke-linejoin="round" stroke-linecap="round"/><path d="M -11 8 L 12 8 L 11 66 L -10 66 Z" fill="#26262e" stroke="#2a1810" stroke-width="5" stroke-linejoin="round" stroke-linecap="round"/><path d="M 0.5 14 L 7 19 L 0.5 24 L -6 19 Z" fill="#f1ece2"/><path d="M 0.5 24.5 L 7 29.5 L 0.5 34.5 L -6 29.5 Z" fill="#f1ece2"/><path d="M 0.5 35 L 7 40 L 0.5 45 L -6 40 Z" fill="#f1ece2"/><path d="M 0.5 45.5 L 7 50.5 L 0.5 55.5 L -6 50.5 Z" fill="#f1ece2"/><path d="M 0.5 56 L 7 61 L 0.5 66 L -6 61 Z" fill="#f1ece2"/><path d="M -12 64 L 13 64 Q 13 78 0.5 78 Q -12 78 -12 64 Z" fill="url(#gold)" stroke="#2a1810" stroke-width="5" stroke-linejoin="round" stroke-linecap="round"/><ellipse cx="0.5" cy="2" rx="29" ry="9" fill="#3a3240" stroke="#2a1810" stroke-width="5"/><ellipse cx="0.5" cy="1" rx="21" ry="5" fill="none" stroke="#f6b92f" stroke-width="3.5"/></g><g transform="rotate(112 319.11 413.14)"><circle cx="319.11" cy="413.14" r="17" fill="url(#skin)" stroke="#2a1810" stroke-width="7"/><path d="M 310.11 408.14 Q 319.11 404.14 328.11 408.14" fill="none" stroke="#d98f6c" stroke-width="3" stroke-linecap="round" stroke-linejoin="round"/></g><g transform="rotate(-30 184 318)"><circle cx="184" cy="318" r="17" fill="url(#skin)" stroke="#2a1810" stroke-width="7"/><path d="M 175 313 Q 184 309 193 313" fill="none" stroke="#d98f6c" stroke-width="3" stroke-linecap="round" stroke-linejoin="round"/></g>
    </g>
    <g transform="translate(136 250) rotate(-40)"><path d="M 0 -15.299999999999999 C 4.95 -6.3 9 -0.9 9 3.15 A 9 9 0 1 1 -9 3.15 C -9 -0.9 -4.95 -6.3 0 -15.299999999999999 Z" fill="url(#tear)" stroke="#2a1810" stroke-width="5" stroke-linejoin="round" stroke-linecap="round"/><ellipse cx="-3.15" cy="0.9" rx="1.98" ry="3.6" fill="#fff" opacity="0.9"/></g><g transform="translate(118 300) rotate(-60)"><path d="M 0 -11.9 C 3.8500000000000005 -4.8999999999999995 7 -0.7000000000000001 7 2.4499999999999997 A 7 7 0 1 1 -7 2.4499999999999997 C -7 -0.7000000000000001 -3.8500000000000005 -4.8999999999999995 0 -11.9 Z" fill="url(#tear)" stroke="#2a1810" stroke-width="5" stroke-linejoin="round" stroke-linecap="round"/><ellipse cx="-2.4499999999999997" cy="0.7000000000000001" rx="1.54" ry="2.8000000000000003" fill="#fff" opacity="0.9"/></g><g transform="translate(398 262) rotate(40)"><path d="M 0 -15.299999999999999 C 4.95 -6.3 9 -0.9 9 3.15 A 9 9 0 1 1 -9 3.15 C -9 -0.9 -4.95 -6.3 0 -15.299999999999999 Z" fill="url(#tear)" stroke="#2a1810" stroke-width="5" stroke-linejoin="round" stroke-linecap="round"/><ellipse cx="-3.15" cy="0.9" rx="1.98" ry="3.6" fill="#fff" opacity="0.9"/></g><g transform="translate(420 310) rotate(55)"><path d="M 0 -11.9 C 3.8500000000000005 -4.8999999999999995 7 -0.7000000000000001 7 2.4499999999999997 A 7 7 0 1 1 -7 2.4499999999999997 C -7 -0.7000000000000001 -3.8500000000000005 -4.8999999999999995 0 -11.9 Z" fill="url(#tear)" stroke="#2a1810" stroke-width="5" stroke-linejoin="round" stroke-linecap="round"/><ellipse cx="-2.4499999999999997" cy="0.7000000000000001" rx="1.54" ry="2.8000000000000003" fill="#fff" opacity="0.9"/></g>
  </g></defs>
<g filter="url(#sticker)"><use href="#art"/></g>
<use href="#art"/>
</svg>
